<svg xmlns="http://www.w3.org/2000/svg" width="24" height="24" viewBox="0 0 24 24"><defs><style>.a{fill:#fff;}</style></defs><path class="a" d="M16,4A12,12,0,1,0,28,16,12.014,12.014,0,0,0,16,4Zm0,1.8a10.2,10.2,0,0,1,3,19.951V22.682a2.942,2.942,0,0,0-1.615-2.618,5.8,5.8,0,0,0,4.162-2.86,3.982,3.982,0,0,0-.485-4.372,4.154,4.154,0,0,0-.143-3.387,3.35,3.35,0,0,0-2.66,1.514,7.315,7.315,0,0,0-4.521,0A3.349,3.349,0,0,0,11.08,9.446a3.432,3.432,0,0,0-.041,3.262,4,4,0,0,0-.626,4.428,5.77,5.77,0,0,0,4.2,2.931,2.946,2.946,0,0,0-1.55,2.026H12.27a1.668,1.668,0,0,1-1.5-.85,2.722,2.722,0,0,0-1.4-1.041c-.289-.031-.484.189-.232.384.851.58.91,1.528,1.252,2.149A2.014,2.014,0,0,0,12.058,23.8H13v1.951A10.2,10.2,0,0,1,16,5.8Z" transform="translate(-4 -4)"/></svg>