<svg xmlns="http://www.w3.org/2000/svg" width="24" height="21.637" viewBox="0 0 24 21.637"><defs><style>.a{fill:#fff;}</style></defs><path class="a" d="M10.68,4.182A3.318,3.318,0,0,0,9,4.607c-1.569.906-2.166,3.113-1.85,5.861C4.613,11.569,3,13.189,3,15s1.613,3.431,4.15,4.531c-.316,2.748.281,4.955,1.85,5.861a3.313,3.313,0,0,0,1.68.426A7.7,7.7,0,0,0,15,24.043a7.706,7.706,0,0,0,4.322,1.775A3.318,3.318,0,0,0,21,25.393c1.569-.906,2.166-3.113,1.85-5.861C25.388,18.431,27,16.811,27,15s-1.613-3.431-4.15-4.531c.316-2.748-.281-4.956-1.85-5.861a3.3,3.3,0,0,0-1.68-.426A7.7,7.7,0,0,0,15,5.957,7.7,7.7,0,0,0,10.68,4.182Zm0,1.75a5.7,5.7,0,0,1,2.938,1.186,19.6,19.6,0,0,0-1.928,2.119,19.618,19.618,0,0,0-2.84.619c0-.061-.016-.125-.02-.186-.107-1.78.284-3.107,1.045-3.547A1.567,1.567,0,0,1,10.68,5.932Zm8.641,0a1.569,1.569,0,0,1,.8.191c.761.439,1.152,1.767,1.045,3.547,0,.06-.015.124-.02.186a19.621,19.621,0,0,0-2.842-.619,19.589,19.589,0,0,0-1.926-2.119A5.7,5.7,0,0,1,19.32,5.932ZM15,8.229c.271.247.54.508.813.793C15.543,9.012,15.274,9,15,9s-.541.012-.811.021C14.461,8.736,14.729,8.475,15,8.229Zm0,2.521a21.879,21.879,0,0,1,2.359.127,21.417,21.417,0,0,1,1.322,2A21.748,21.748,0,0,1,19.754,15a21.746,21.746,0,0,1-1.072,2.127,21.4,21.4,0,0,1-1.318,1.99A21.764,21.764,0,0,1,15,19.25a21.879,21.879,0,0,1-2.359-.127,21.392,21.392,0,0,1-1.322-2A21.767,21.767,0,0,1,10.246,15a21.726,21.726,0,0,1,1.072-2.125,21.445,21.445,0,0,1,1.318-1.992A21.764,21.764,0,0,1,15,10.75Zm4.746.541c.4.1.778.2,1.137.314-.081.367-.181.741-.293,1.119-.129-.241-.253-.484-.392-.725S19.9,11.53,19.746,11.291Zm-9.494,0c-.149.238-.307.46-.449.707s-.264.483-.393.725c-.113-.379-.214-.753-.295-1.121C9.48,11.488,9.861,11.386,10.252,11.293Zm-2.783.953A19.6,19.6,0,0,0,8.348,15a19.622,19.622,0,0,0-.877,2.746C5.729,16.9,4.75,15.856,4.75,15c0-.879.952-1.881,2.547-2.678C7.351,12.3,7.413,12.273,7.469,12.246Zm15.061.01C24.271,13.1,25.25,14.144,25.25,15c0,.879-.952,1.881-2.547,2.678-.054.027-.116.05-.172.076A19.6,19.6,0,0,0,21.654,15,19.613,19.613,0,0,0,22.529,12.256ZM15,13a2,2,0,1,0,2,2A2,2,0,0,0,15,13ZM9.41,17.275c.129.241.255.484.395.725s.3.471.449.709c-.4-.1-.778-.2-1.137-.314C9.2,18.027,9.3,17.654,9.41,17.275Zm11.18,0c.113.378.214.752.3,1.119-.365.115-.746.218-1.137.311.149-.238.307-.46.449-.707S20.461,17.518,20.59,17.277ZM8.85,20.145a19.613,19.613,0,0,0,2.842.619,19.6,19.6,0,0,0,1.926,2.121A5.7,5.7,0,0,1,10.68,24.07a1.57,1.57,0,0,1-.8-.193c-.761-.439-1.152-1.765-1.045-3.545C8.834,20.271,8.845,20.206,8.85,20.145Zm12.3,0c0,.062.016.126.02.188.107,1.78-.284,3.1-1.045,3.545a1.567,1.567,0,0,1-.8.193,5.7,5.7,0,0,1-2.937-1.185,19.6,19.6,0,0,0,1.928-2.121A19.616,19.616,0,0,0,21.15,20.145Zm-6.963.834c.27.009.538.021.813.021s.543-.012.813-.021c-.272.285-.541.546-.812.793C14.729,21.525,14.46,21.264,14.188,20.979Z" transform="translate(-3 -4.182)"/></svg>